<svg id="bold" enable-background="new 0 0 24 24" height="512" viewBox="0 0 24 24" width="512" xmlns="http://www.w3.org/2000/svg"><path fill="#293b5f" d="m19.25 0h-14.5c-1.517 0-2.75 1.233-2.75 2.75v18.5c0 1.517 1.233 2.75 2.75 2.75h14.5c1.517 0 2.75-1.233 2.75-2.75v-18.5c0-1.517-1.233-2.75-2.75-2.75zm-9.47 18.72c.293.293.293.768 0 1.061-.146.146-.338.219-.53.219s-.384-.073-.53-.22l-.72-.719-.72.72c-.146.146-.338.219-.53.219s-.384-.073-.53-.22c-.293-.293-.293-.768 0-1.061l.719-.719-.72-.72c-.293-.293-.293-.768 0-1.061s.768-.293 1.061 0l.72.72.72-.72c.293-.293.768-.293 1.061 0s.293.768 0 1.061l-.72.72zm-.53-5.97h-.5v.5c0 .414-.336.75-.75.75s-.75-.336-.75-.75v-.5h-.5c-.414 0-.75-.336-.75-.75s.336-.75.75-.75h.5v-.5c0-.414.336-.75.75-.75s.75.336.75.75v.5h.5c.414 0 .75.336.75.75s-.336.75-.75.75zm8 7.25h-2.5c-.414 0-.75-.336-.75-.75s.336-.75.75-.75h2.5c.414 0 .75.336.75.75s-.336.75-.75.75zm0-2.5h-2.5c-.414 0-.75-.336-.75-.75s.336-.75.75-.75h2.5c.414 0 .75.336.75.75s-.336.75-.75.75zm0-4.5h-2.5c-.414 0-.75-.336-.75-.75s.336-.75.75-.75h2.5c.414 0 .75.336.75.75s-.336.75-.75.75zm1.75-6.75c0 .965-.785 1.75-1.75 1.75h-10.5c-.965 0-1.75-.785-1.75-1.75v-1.5c0-.965.785-1.75 1.75-1.75h10.5c.965 0 1.75.785 1.75 1.75z"/></svg>