<svg width="11" height="11" viewBox="0 0 11 11" fill="none" xmlns="http://www.w3.org/2000/svg">
<circle cx="5.5" cy="5.5" r="5.5" fill="#565656"/>
<path d="M3.88927 3.18202C3.69401 2.98676 3.37742 2.98676 3.18216 3.18202C2.9869 3.37728 2.9869 3.69387 3.18216 3.88913L3.88927 3.18202ZM7.11073 7.8177C7.30599 8.01296 7.62258 8.01296 7.81784 7.8177C8.0131 7.62244 8.0131 7.30585 7.81784 7.11059L7.11073 7.8177ZM7.81784 3.88913C8.0131 3.69387 8.0131 3.37728 7.81784 3.18202C7.62258 2.98676 7.30599 2.98676 7.11073 3.18202L7.81784 3.88913ZM3.18216 7.11059C2.9869 7.30585 2.9869 7.62244 3.18216 7.8177C3.37742 8.01296 3.69401 8.01296 3.88927 7.8177L3.18216 7.11059ZM3.18216 3.88913L7.11073 7.8177L7.81784 7.11059L3.88927 3.18202L3.18216 3.88913ZM7.11073 3.18202L3.18216 7.11059L3.88927 7.8177L7.81784 3.88913L7.11073 3.18202Z" fill="white"/>
</svg>
